<?xml version="1.0" encoding="utf-8"?>
<svg xml:space="preserve" viewBox="0 0 100 100" y="0" x="0" xmlns="http://www.w3.org/2000/svg" id="圖層_1" version="1.1" style="height: 100%; width: 100%; background: rgb(255, 255, 255); shape-rendering: auto;" width="200px" height="200px"><g class="ldl-scale" style="transform-origin: 50% 50%; transform: rotate(0deg) scale(0.8, 0.8);"><g class="ldl-ani" style="transform-origin: 50px 50px; transform: translate(0px, 0px) rotate(0deg) scale(1, 1) skewX(0deg) skewY(0deg); opacity: 1; animation: 1.11111s linear 0s infinite normal forwards running slide-ltr-93f70e2a-9e08-472f-8c64-af207265f9e5;"><g class="ldl-layer"><g class="ldl-ani" style="transform-origin: 50px 50px;"><path fill="#666" d="M53.2 34.2h-9.5v14.7h24.4l-6.7-10.2c-1.7-2.8-4.8-4.5-8.2-4.5z" style="fill: rgb(102, 102, 102);"></path></g></g><g class="ldl-layer"><g class="ldl-ani" style="transform-origin: 50px 50px;"><path fill="#666" d="M35.1 34.2c-3.4 0-6.5 2.2-7.3 5.4l-3.6 9.3h16.5V34.2h-5.6z" style="fill: rgb(102, 102, 102);"></path></g></g><g class="ldl-layer"><g class="ldl-ani" style="transform-origin: 50px 50px;"><path fill="#e0e0e0" d="M65.1 36.8c-2-3.3-5.7-5.4-9.7-5.4H31.9c-4.1 0-7.7 2.6-8.7 6.4l-4.3 11.1h5.8l3.4-8.7c.8-3 3.6-5.1 6.8-5.1h5.2v13.7h4.4V35.2h8.9c3.1 0 6.1 1.6 7.6 4.2l6.2 9.5H73l-7.9-12.1z" style="fill: rgb(224, 224, 224);"></path></g></g><g class="ldl-layer"><g class="ldl-ani" style="transform-origin: 50px 50px;"><path fill="#d50d01" d="M47 30.9h-4.7c-1.8 0-3.4-1.2-3.4-2.8 0-1.5 1.6-2.6 3.4-2.3l4.7.6c1.3.2 2.2 1.2 2.2 2.4 0 1.1-1 2.1-2.2 2.1z" style="fill: rgb(213, 13, 1);"></path></g></g><g class="ldl-layer"><g class="ldl-ani" style="transform-origin: 50px 50px;"><path d="M19.1 48.4l3.2 19h50.2v-19z" fill="#e0e0e0" style="fill: rgb(224, 224, 224);"></path></g></g><g class="ldl-layer"><g class="ldl-ani" style="transform-origin: 50px 50px;"><path d="M88.1 57.9l-.8-3.2c-.1-.4-.2-.7-.3-1-1.1-3.1-4.1-5.2-7.4-5.2h-7.1v19h18l-2.4-9.6z" style=""></path></g></g><g class="ldl-layer"><g class="ldl-ani" style="transform-origin: 50px 50px;"><path d="M9.3 53.7c0 .1-.1.2-.1.3l-.6 3.9-.8 5.4c0 2.2 1.8 4.1 4.1 4.1h10.4l-3.2-19h-3.6c-3.1 0-5.7 2.2-6.2 5.3z" style=""></path></g></g><g class="ldl-layer"><g class="ldl-ani" style="transform-origin: 50px 50px;"><path fill="#e15b64" d="M13.5 53.7h-4c-.3 0-.5.1-.5.3l-.5 3.4c0 .3.2.5.4.5h4.6c1.1 0 1.9-.8 1.9-1.9v-.5c0-1-.9-1.8-1.9-1.8z" style="fill: rgb(225, 91, 100);"></path></g></g><g class="ldl-layer"><g class="ldl-ani" style="transform-origin: 50px 50px;"><path fill="#e0e0e0" d="M87.6 54.1c-.1-.3-.3-.5-.6-.5h-3c-.8 0-1.4.6-1.4 1.3v1.6c0 .7.6 1.3 1.4 1.3h3.8c.4 0 .8-.4.6-.8l-.8-2.9z" style="fill: rgb(224, 224, 224);"></path></g></g><g class="ldl-layer"><g class="ldl-ani" style="transform-origin: 50px 50px;"><path d="M90.3 62.9H7.9s-.4 0-.4.4c0 2.4 1.7 4.1 4.2 4.1h78.5c1.2 0 2.2-1 2.2-2.2.1-1.3-.9-2.3-2.1-2.3z" style=""></path></g></g><g class="ldl-layer"><g class="ldl-ani" style="transform-origin: 50px 50px;"><g><g class="ldl-layer"><g class="ldl-ani" style="transform-origin: 50px 50px;"><circle fill="#fff" r="7.5" cy="65.3" cx="23.9" style="fill: rgb(255, 255, 255);"></circle></g></g><g class="ldl-layer"><g class="ldl-ani" style="transform-origin: 50px 50px;"><path fill="#333" d="M23.9 59.3c3.3 0 6 2.7 6 6s-2.7 6-6 6-6-2.7-6-6 2.7-6 6-6m0-3c-5 0-9 4-9 9s4 9 9 9 9-4 9-9-4.1-9-9-9z" style="fill: rgb(51, 51, 51);"></path></g></g></g></g></g><g class="ldl-layer"><g class="ldl-ani" style="transform-origin: 50px 50px;"><g><g class="ldl-layer"><g class="ldl-ani" style="transform-origin: 50px 50px;"><circle fill="#e6e6e6" r="4" cy="65.3" cx="23.9" style="fill: rgb(230, 230, 230);"></circle></g></g></g></g></g><g class="ldl-layer"><g class="ldl-ani" style="transform-origin: 50px 50px;"><g><g class="ldl-layer"><g class="ldl-ani" style="transform-origin: 50px 50px;"><circle fill="#fff" r="7.5" cy="65.3" cx="71.5" style="fill: rgb(255, 255, 255);"></circle></g></g><g class="ldl-layer"><g class="ldl-ani" style="transform-origin: 50px 50px;"><path fill="#333" d="M71.5 59.3c3.3 0 6 2.7 6 6s-2.7 6-6 6-6-2.7-6-6 2.7-6 6-6m0-3c-5 0-9 4-9 9s4 9 9 9 9-4 9-9-4-9-9-9z" style="fill: rgb(51, 51, 51);"></path></g></g></g></g></g><g class="ldl-layer"><g class="ldl-ani" style="transform-origin: 50px 50px;"><g><g class="ldl-layer"><g class="ldl-ani" style="transform-origin: 50px 50px;"><circle fill="#e6e6e6" r="4" cy="65.3" cx="71.5" style="fill: rgb(230, 230, 230);"></circle></g></g></g></g></g><g class="ldl-layer"><g class="ldl-ani" style="transform-origin: 50px 50px;"><path d="M54.9 50.4l1.5 3.1 3.4.5-2.5 2.4.6 3.3-3-1.5-3 1.5.5-3.3L50 54l3.4-.5z" fill="#f8b26a" style="fill: rgb(248, 178, 106);"></path></g></g><metadata xmlns:d="https://loading.io/stock/"><d:name>police car</d:name><d:tags>ranger,patrol,wagon,black maria,garrison,crime,cop,officer,police car,transportation</d:tags><d:license>by</d:license><d:slug>yrmykd</d:slug></metadata></g></g><style id="slide-ltr-93f70e2a-9e08-472f-8c64-af207265f9e5" data-anikit="">@keyframes slide-ltr-93f70e2a-9e08-472f-8c64-af207265f9e5
{
  0% {
    animation-timing-function: cubic-bezier(0.4652,0.1051,0.774,0.6426);
    transform: translate(0px,0px) rotate(0deg) scale(1,1) skewX(0deg) skewY(0deg);
    opacity: 1;
  }
  22.5% {
    animation-timing-function: cubic-bezier(0.4142,0.3131,0.7623,0.6513);
    transform: translate(47.8px,0px) rotate(0deg) scale(1,1) skewX(0deg) skewY(0deg);
    opacity: 1;
  }
  45% {
    animation-timing-function: cubic-bezier(0.3615,0.331,0.9646,1.3461);
    transform: translate(147.8px,0px) rotate(0deg) scale(1,1) skewX(0deg) skewY(0deg);
    opacity: 1;
  }
  47.5% {
    animation-timing-function: cubic-bezier(0.7006,0.3332,0.6667,0.6667);
    transform: translate(165.6px,0px) rotate(0deg) scale(1,1) skewX(0deg) skewY(0deg);
    opacity: 0;
  }
  50% {
    animation-timing-function: cubic-bezier(0.1604,0.3176,-0.0218,0.6965);
    transform: translate(-200px,0px) rotate(0deg) scale(1,1) skewX(0deg) skewY(0deg);
    opacity: 0;
  }
  51% {
    animation-timing-function: cubic-bezier(0.1983,0.3529,0.5263,0.6945);
    transform: translate(-179.8px,0px) rotate(0deg) scale(1,1) skewX(0deg) skewY(0deg);
    opacity: 0;
  }
  80.4% {
    animation-timing-function: cubic-bezier(0.2342,0.3708,0.5422,0.9065);
    transform: translate(-38.4px,0px) rotate(0deg) scale(1,1) skewX(0deg) skewY(0deg);
    opacity: 1;
  }
  100% {
    transform: translate(0px,0px) rotate(0deg) scale(1,1) skewX(0deg) skewY(0deg);
    opacity: 1;
  }
}</style><!-- [ldio] generated by https://loading.io/ --></svg>